<svg xmlns="http://www.w3.org/2000/svg" viewBox="0 0 135.75 135.75"><defs><style>.cls-1,.cls-2{fill:#334142;}.cls-2{stroke:#38e2fe;stroke-width:2.57px;}.cls-2,.cls-4{stroke-miterlimit:10;}.cls-3{font-size:23.42px;font-family:LeagueSpartan-Bold, League Spartan;font-weight:700;}.cls-3,.cls-5{fill:#38e2fe;}.cls-4{fill:none;stroke:#334142;stroke-width:2.73px;}.cls-6{fill:#f48911;}.cls-7{fill:#f6d207;}</style></defs><title>Asset 1</title><g id="Layer_2" data-name="Layer 2"><g id="OBJECTS"><rect class="cls-1" x="32.02" y="32.05" width="71.7" height="71.7" rx="7.26" ry="7.26"/><rect class="cls-2" x="44.47" y="44.49" width="46.81" height="46.81" rx="7.21" ry="7.21" transform="translate(135.77 0.02) rotate(90)"/><text class="cls-3" transform="translate(54.52 75.96)">AI</text><line class="cls-4" x1="62.94" y1="10.22" x2="62.74" y2="34.91"/><polyline class="cls-4" points="95.38 18.77 88.81 25.33 88.81 42.62"/><polyline class="cls-4" points="38.64 7.46 49.21 18.02 49.21 35.31"/><circle class="cls-5" cx="37.65" cy="4.74" r="4.74"/><circle class="cls-6" cx="62.84" cy="8.89" r="4.74"/><polyline class="cls-4" points="85.95 5.93 75.38 16.49 75.38 33.78"/><circle class="cls-5" cx="86.39" cy="4.74" r="4.74"/><circle class="cls-5" cx="96.47" cy="17.18" r="4.74"/><line class="cls-4" x1="72.81" y1="125.53" x2="73.01" y2="100.84"/><polyline class="cls-4" points="40.37 116.98 46.94 110.42 46.94 93.13"/><polyline class="cls-4" points="97.11 128.29 86.54 117.72 86.54 100.44"/><circle class="cls-5" cx="98.09" cy="131.01" r="4.74"/><circle class="cls-5" cx="72.91" cy="126.86" r="4.74"/><polyline class="cls-4" points="49.8 129.82 60.37 119.25 60.37 101.97"/><circle class="cls-5" cx="49.36" cy="131.01" r="4.74"/><circle class="cls-6" cx="39.28" cy="118.56" r="4.74"/><line class="cls-4" x1="125.53" y1="62.94" x2="100.84" y2="62.74"/><polyline class="cls-4" points="116.98 95.38 110.42 88.81 93.13 88.81"/><polyline class="cls-4" points="128.29 38.64 117.72 49.21 100.44 49.21"/><circle class="cls-7" cx="131.01" cy="37.65" r="4.74"/><circle class="cls-5" cx="126.86" cy="62.84" r="4.74"/><polyline class="cls-4" points="129.82 85.95 119.25 75.38 101.97 75.38"/><circle class="cls-5" cx="131.01" cy="86.39" r="4.74"/><circle class="cls-7" cx="118.56" cy="96.47" r="4.74"/><line class="cls-4" x1="10.22" y1="72.81" x2="34.91" y2="73.01"/><polyline class="cls-4" points="18.77 40.37 25.33 46.94 42.62 46.94"/><polyline class="cls-4" points="7.46 97.11 18.02 86.54 35.31 86.54"/><circle class="cls-5" cx="4.74" cy="98.09" r="4.74"/><circle class="cls-7" cx="8.89" cy="72.91" r="4.74"/><polyline class="cls-4" points="5.93 49.8 16.49 60.37 33.78 60.37"/><circle class="cls-5" cx="4.74" cy="49.36" r="4.74"/><circle class="cls-5" cx="17.18" cy="39.28" r="4.74"/></g></g></svg>