<?xml version="1.0" encoding="iso-8859-1"?>
<!-- Generator: Adobe Illustrator 21.0.0, SVG Export Plug-In . SVG Version: 6.00 Build 0)  -->
<svg version="1.1" id="Capa_1" xmlns="http://www.w3.org/2000/svg" xmlns:xlink="http://www.w3.org/1999/xlink" x="0px" y="0px"
	 viewBox="0 0 512 512" style="enable-background:new 0 0 512 512;" xml:space="preserve">
<circle style="fill:#8bc44a;" cx="256" cy="256" r="256"/>
<path style="fill:#689f38;" d="M512,256c0-3.075-0.074-6.133-0.181-9.181L352,87L160,418l93.974,93.974
	C254.65,511.979,255.323,512,256,512C397.385,512,512,397.385,512,256z"/>
<rect x="160" y="87" style="fill:#FFFFFF;" width="192" height="331"/>
<polygon style="fill:#7E8596;" points="352,418 239,435 239,104 352,87 "/>
<polygon style="fill:#707789;" points="239,255.905 239,435 352,418 352,255.905 "/>
<polygon style="fill:#414952;" points="267,461 160,418 160,87 267,130 "/>
<polygon style="fill:#23272B;" points="160,255.905 160,418 267,461 267,255.905 "/>
<polygon style="fill:#636978;" points="240.333,274.833 178.833,252.393 178.833,151.5 240.333,173.94 "/>
<polygon style="fill:#555A66;" points="240.333,255.905 188.458,255.905 240.333,274.833 "/>
<g>
</g>
<g>
</g>
<g>
</g>
<g>
</g>
<g>
</g>
<g>
</g>
<g>
</g>
<g>
</g>
<g>
</g>
<g>
</g>
<g>
</g>
<g>
</g>
<g>
</g>
<g>
</g>
<g>
</g>
</svg>
