<?xml version="1.0" encoding="utf-8"?>
<!-- Generator: Adobe Illustrator 23.0.1, SVG Export Plug-In . SVG Version: 6.00 Build 0)  -->
<svg version="1.1" xmlns="http://www.w3.org/2000/svg" xmlns:xlink="http://www.w3.org/1999/xlink" x="0px" y="0px"
	 viewBox="0 0 120 120" style="enable-background:new 0 0 120 120;" xml:space="preserve">
<style type="text/css">
	.st0{opacity:0.22;fill:#1187C9;}
	.st1{fill:#1187C9;}
	.st2{fill:#808081;}
</style>
<g id="Layer_2">
	<rect class="st0" width="120" height="120"/>
</g>
<g id="Layer_1">
	<g id="Big_Boomi_Logo_RGB">
		<g>
			<g id="White_Logo_RGB_8_">
				<path class="st1" d="M59.9,18.7C46,18.7,34.7,30,34.7,44S46,69.2,59.9,69.2S85.2,57.9,85.2,44S73.9,18.7,59.9,18.7 M59.9,66.7
					c-12.5,0-22.7-10.2-22.7-22.7c0-12.5,10.2-22.7,22.7-22.7S82.7,31.4,82.7,44C82.7,56.5,72.5,66.7,59.9,66.7 M79.8,47.2v2.2h-7
					V38.6H75v8.6H79.8z M46.3,49.3c2.5,0,4.8-1.6,5.5-4l6.5,4.7l6.5-4.7v4h7v-2.2h-4.8v-8.6h-2.1v4l-6.2,4.5l-1.4-1l3-2.2l3.2-2.4
					l-1.8-1.4l-6.2,4.5l-1.4-1l6.2-4.6l-1.8-1.4l-6.5,4.7c-0.7-2.4-3-4.1-5.5-4h-4.6v10.8L46.3,49.3L46.3,49.3z M44.4,47.2v-6.4h1.9
					c1.7,0.1,3,1.5,2.9,3.2c0.1,1.7-1.2,3.1-2.9,3.2H44.4z"/>
			</g>
		</g>
	</g>
	<g>
		<path class="st2" d="M26.5,72h1.6c0.6,0,1.1,0,1.7,0.1c0.5,0,1,0.1,1.6,0.2c0.4,0.1,0.9,0.2,1.3,0.5c0.8,0.5,1.4,1.1,1.9,1.9
			c0.5,0.9,0.8,1.9,0.8,2.9c0,1.1-0.3,2.2-0.9,3.2c-0.6,0.9-1.5,1.6-2.5,2v0.1c1.3,0.2,2.4,0.9,3.2,1.9c0.8,1,1.2,2.3,1.1,3.6
			c0,0.8-0.2,1.7-0.5,2.4c-0.3,0.8-0.7,1.5-1.3,2.1c-0.6,0.6-1.4,1.1-2.2,1.5c-1,0.4-2,0.6-3,0.6H18.2V72H26.5z M27.2,81.6
			c1.7,0,3-0.3,3.7-0.9c0.8-0.7,1.2-1.7,1.1-2.7c0-0.7-0.1-1.3-0.4-1.9c-0.2-0.5-0.6-0.9-1.1-1.1c-0.5-0.3-1-0.4-1.5-0.5
			c-0.6-0.1-1.3-0.1-1.9-0.1h-6v7.3L27.2,81.6L27.2,81.6z M28.6,92.1c1.1,0.1,2.3-0.3,3.1-1.1c0.8-0.8,1.2-1.9,1.1-3
			c0-0.6-0.1-1.3-0.4-1.8c-0.3-0.5-0.6-0.9-1.1-1.2c-0.5-0.3-1-0.5-1.6-0.6c-0.6-0.1-1.2-0.2-1.8-0.2h-6.9v7.8H28.6L28.6,92.1z"/>
		<path class="st2" d="M38.5,83.1c0.3-1,0.8-2,1.5-2.8c0.7-0.8,1.6-1.4,2.5-1.8c2.2-0.9,4.7-0.9,6.9,0c1,0.4,1.8,1.1,2.5,1.8
			c0.7,0.8,1.2,1.7,1.5,2.8c0.3,1.1,0.5,2.3,0.5,3.4c0,1.2-0.2,2.3-0.5,3.4c-0.3,1-0.8,1.9-1.5,2.7c-0.7,0.8-1.6,1.4-2.5,1.8
			c-2.2,0.9-4.7,0.9-6.9,0c-1-0.4-1.8-1-2.5-1.8c-0.7-0.8-1.2-1.7-1.5-2.7c-0.3-1.1-0.5-2.2-0.5-3.4C38,85.3,38.1,84.2,38.5,83.1z
			 M41.3,89.2c0.2,0.7,0.6,1.4,1.1,2c0.5,0.5,1,0.9,1.7,1.2c1.3,0.6,2.7,0.6,4,0c0.6-0.3,1.2-0.7,1.7-1.2c0.5-0.6,0.9-1.2,1.1-2
			c0.3-0.9,0.4-1.8,0.4-2.7c0-0.9-0.1-1.8-0.4-2.7c-0.2-0.7-0.6-1.4-1.1-2c-0.5-0.5-1-0.9-1.7-1.2c-1.3-0.6-2.7-0.6-4,0
			c-0.6,0.3-1.2,0.7-1.7,1.2c-0.5,0.6-0.9,1.2-1.1,2c-0.3,0.9-0.4,1.8-0.4,2.7C40.8,87.4,41,88.3,41.3,89.2z"/>
		<path class="st2" d="M56.1,83.1c0.3-1,0.8-2,1.5-2.8c0.7-0.8,1.6-1.4,2.5-1.8c2.2-0.9,4.7-0.9,6.9,0c1,0.4,1.8,1.1,2.5,1.8
			c0.7,0.8,1.2,1.7,1.5,2.8c0.4,1.1,0.5,2.3,0.5,3.4c0,1.2-0.2,2.3-0.5,3.4c-0.3,1-0.8,1.9-1.5,2.7c-0.7,0.8-1.6,1.4-2.5,1.8
			c-2.2,0.9-4.7,0.9-6.9,0c-1-0.4-1.8-1-2.5-1.8c-0.7-0.8-1.2-1.7-1.5-2.7c-0.3-1.1-0.5-2.2-0.5-3.4C55.6,85.3,55.7,84.2,56.1,83.1z
			 M58.9,89.2c0.2,0.7,0.6,1.4,1.1,2c0.5,0.5,1,0.9,1.7,1.2c1.3,0.6,2.7,0.6,4,0c0.6-0.3,1.2-0.7,1.7-1.2c0.5-0.6,0.9-1.2,1.1-2
			c0.3-0.9,0.4-1.8,0.4-2.7c0-0.9-0.1-1.8-0.4-2.7c-0.2-0.7-0.6-1.4-1.1-2c-0.5-0.5-1-0.9-1.7-1.2c-1.3-0.6-2.7-0.6-4,0
			c-0.6,0.3-1.2,0.7-1.7,1.2c-0.5,0.6-0.9,1.2-1.1,2c-0.3,0.9-0.4,1.8-0.4,2.7C58.4,87.4,58.6,88.3,58.9,89.2z"/>
		<path class="st2" d="M76.7,78.2v2.4h0.1c1.8-2.7,5.3-3.6,8.1-2.2c0.9,0.5,1.5,1.3,1.8,2.2c0.5-0.9,1.3-1.6,2.2-2.1
			c0.9-0.5,2-0.8,3-0.7c0.8,0,1.5,0.1,2.3,0.3c0.6,0.2,1.2,0.5,1.7,0.9c0.5,0.4,0.9,0.9,1.1,1.5c0.3,0.7,0.4,1.5,0.4,2.2v12.2h-2.7
			V83.9c0-0.5,0-1-0.1-1.4c-0.1-0.4-0.2-0.8-0.5-1.2c-0.3-0.3-0.6-0.6-1-0.8c-0.5-0.2-1.1-0.3-1.6-0.3c-1.2-0.1-2.3,0.4-3.2,1.2
			c-0.8,0.8-1.2,1.9-1.1,3.1v10.3h-3V83.9c0-0.5,0-1-0.1-1.5c-0.1-0.4-0.3-0.8-0.5-1.2c-0.2-0.3-0.6-0.6-0.9-0.8
			c-0.5-0.2-1-0.3-1.5-0.3c-0.7,0-1.4,0.1-2,0.5c-0.5,0.3-1,0.7-1.4,1.2c-0.3,0.4-0.6,0.9-0.8,1.4c-0.1,0.4-0.2,0.8-0.2,1.2v10.3H74
			V78.2H76.7z"/>
		<path class="st2" d="M100.9,75.2V72h2.7v3.2H100.9z M103.5,78.2v16.6h-2.7V78.2H103.5z"/>
	</g>
</g>
</svg>
