<?xml version="1.0" encoding="utf-8"?>
<!-- Generator: Adobe Illustrator 23.0.1, SVG Export Plug-In . SVG Version: 6.00 Build 0)  -->
<svg version="1.1" xmlns="http://www.w3.org/2000/svg" xmlns:xlink="http://www.w3.org/1999/xlink" x="0px" y="0px"
	 viewBox="0 0 120 120" style="enable-background:new 0 0 120 120;" xml:space="preserve">
<style type="text/css">
	.st0{fill:#BAB9A4;}
	.st1{fill:#FC5D47;}
	.st2{fill:#FF3E3E;}
	.st3{fill:#F7F1E6;}
	.st4{fill:#191918;stroke:#000000;stroke-width:0.5;stroke-miterlimit:10;}
	.st5{font-family:'MyriadPro-Regular';}
	.st6{font-size:12px;}
</style>
<g id="Layer_2">
	<rect class="st0" width="120" height="120"/>
</g>
<g id="Layer_1">
	<g>
		<g id="Guides_For_Artboard_20_">
		</g>
		<g id="Artwork_19_">
		</g>
		<g id="Layer_2_19_">
			<g>
				<path class="st1" d="M51.9,34.7c0.2-0.5,0.7-0.8,1.2-0.7c0.5,0.1,0.9,0.5,0.9,1l1.7,20.4l3.3-11.8c0.1-0.5,0.6-0.8,1.1-0.8
					c0.5,0,0.9,0.4,1,0.8l1.8,7.9l3.1-13.1c0.1-0.5,0.6-0.9,1.1-0.8c0.5,0,1,0.4,1,0.9l2.3,16.6l1-3.4c0.1-0.5,0.6-0.8,1-0.8h24.7
					v-5.6c0-5.2-4.2-9.4-9.4-9.4h-15V21c0-5.2-4.2-9.4-9.4-9.4H58h-0.9c-5.2,0-9.4,4.2-9.4,9.4v15h-15c-5.2,0-9.4,4.2-9.4,9.4v5.8
					H46L51.9,34.7z"/>
				<path class="st2" d="M71.2,61.5c-0.2,0.5-0.6,0.8-1.1,0.8c-0.5,0-0.9-0.4-1-0.9l-2.2-15.7l-2.9,12c-0.1,0.5-0.6,0.8-1.1,0.8
					c0,0,0,0,0,0c-0.5,0-0.9-0.4-1.1-0.8L60,49.4l-3.7,13.5c-0.1,0.5-0.6,0.8-1.1,0.8c0,0-0.1,0-0.1,0c-0.5,0-0.9-0.5-1-1l-1.8-21.5
					l-4.5,12.4c-0.2,0.4-0.6,0.7-1,0.7H23.5c0.8,4.4,4.6,7.8,9.3,7.8h15v15c0,5.2,4.2,9.4,9.4,9.4H58h5.4c5.2,0,9.4-4.2,9.4-9.4v-15
					h15c4.7,0,8.6-3.4,9.3-7.9H73.5L71.2,61.5z"/>
				<path class="st3" d="M101.2,52h-3.8H72.7c-0.5,0-0.9,0.3-1,0.8l-1,3.4l-2.3-16.6c-0.1-0.5-0.5-0.9-1-0.9c-0.5,0-1,0.3-1.1,0.8
					L63,52.6l-1.8-7.9c-0.1-0.5-0.5-0.8-1-0.8c-0.5,0-0.9,0.3-1.1,0.8l-3.3,11.8L54,36c0-0.5-0.4-0.9-0.9-1c-0.5-0.1-1,0.2-1.2,0.7
					L46,52.1H23.3h-3.4c-0.6,0-1.1,0.5-1.1,1.1c0,0.6,0.5,1.1,1.1,1.1h3.6h23.3c0.5,0,0.9-0.3,1-0.7l4.5-12.4l1.8,21.5
					c0,0.5,0.5,0.9,1,1c0,0,0.1,0,0.1,0c0.5,0,0.9-0.3,1.1-0.8L60,49.4l1.9,8.3c0.1,0.5,0.6,0.8,1.1,0.8c0,0,0,0,0,0
					c0.5,0,0.9-0.3,1.1-0.8l2.9-12l2.2,15.7c0.1,0.5,0.5,0.9,1,0.9c0.5,0,1-0.3,1.1-0.8l2.3-7.3h23.7h3.9c0.6,0,1.1-0.5,1.1-1.1
					C102.2,52.5,101.8,52,101.2,52z"/>
			</g>
		</g>
	</g>
	<text transform="matrix(1 0 0 1 37.0347 100.7227)" class="st4 st5 st6">iTKO LISA</text>
</g>
</svg>
