<svg xmlns="http://www.w3.org/2000/svg" viewBox="0 0 134.34 139.75"><defs><style>.cls-1{isolation:isolate;}.cls-2{fill:#525d5e;}.cls-3{fill:#334142;}.cls-4{fill:#fff;opacity:0.35;mix-blend-mode:overlay;}.cls-5{fill:#45c8fe;}</style></defs><title>Asset 3</title><g class="cls-1"><g id="Layer_2" data-name="Layer 2"><g id="OBJECTS"><polygon class="cls-2" points="1.43 90.05 0.43 90.14 0 64.26 13.74 53.88 15.25 55.88 3.73 66.43 1.43 90.05"/><polygon class="cls-2" points="6.11 91.73 6.83 92.42 23.23 72.39 18.9 55.72 16.47 56.35 18.96 71.78 6.11 91.73"/><rect class="cls-3" x="5.47" y="36.54" width="33.17" height="5.83" transform="translate(-22.62 46.35) rotate(-69.57)"/><rect class="cls-4" x="4.3" y="37.36" width="33.17" height="3.33" transform="translate(-22.98 44.97) rotate(-69.57)"/><rect class="cls-5" x="12.1" y="47.12" width="7.67" height="18" transform="translate(-42.22 51.46) rotate(-69.57)"/><polygon class="cls-3" points="86.09 17.25 53.84 80.75 83.84 92 102.84 20.75 86.09 17.25"/><polygon class="cls-4" points="69.24 86.53 94 18.9 86.09 17.25 53.84 80.75 69.24 86.53"/><polygon class="cls-3" points="94.34 17.25 33.34 17.25 33.34 4.25 95.59 4.66 94.34 17.25"/><polygon class="cls-4" points="94.97 10.85 95.59 4.66 33.34 4.25 33.34 10.85 94.97 10.85"/><polygon class="cls-3" points="134.34 139.75 70.09 139.75 5.84 139.75 5.84 122.75 5.84 105.75 70.09 105.75 109.34 105.75 134.34 122.75 134.34 139.75"/><polygon class="cls-4" points="134.33 122.75 109.34 105.75 70.09 105.75 5.84 105.75 5.84 122.75 134.33 122.75"/><circle class="cls-5" cx="66.34" cy="95.75" r="25"/><circle class="cls-3" cx="66.34" cy="95.75" r="8"/><circle class="cls-5" cx="94.59" cy="17.5" r="14.75"/><circle class="cls-3" cx="94.59" cy="17.5" r="4.72"/><circle class="cls-5" cx="32.34" cy="14.75" r="14.75"/><circle class="cls-3" cx="32.34" cy="14.75" r="4.72"/></g></g></g></svg>