<?xml version="1.0" encoding="iso-8859-1"?>
<!-- Generator: Adobe Illustrator 19.0.0, SVG Export Plug-In . SVG Version: 6.00 Build 0)  -->
<svg version="1.1" id="Layer_1" xmlns="http://www.w3.org/2000/svg" xmlns:xlink="http://www.w3.org/1999/xlink" x="0px" y="0px"
	 viewBox="0 0 496 496" style="enable-background:new 0 0 496 496;" xml:space="preserve">
<g>
	<path style="fill:#0077ff;" d="M248,96c17.648,0,32-14.352,32-32s-14.352-32-32-32s-32,14.352-32,32S230.352,96,248,96z M248,48
		c8.824,0,16,7.176,16,16s-7.176,16-16,16s-16-7.176-16-16S239.176,48,248,48z"/>
	<path style="fill:#002855;" d="M320,240c0-39.704-32.296-72-72-72s-72,32.296-72,72s32.296,72,72,72S320,279.704,320,240z M248,184
		c28.152,0,51.456,20.912,55.36,48h-3.704c-4.616,0-8.904-2.296-11.472-6.136l-13.968-20.96L251.272,220.2
		c-3.728,2.488-8.064,3.8-12.536,3.8H194.36C201.264,200.896,222.688,184,248,184z M248,296c-30.872,0-56-25.128-56-56h46.736
		c7.64,0,15.048-2.24,21.416-6.488l9.632-6.424l5.096,7.648c5.536,8.312,14.8,13.264,24.776,13.264h3.704
		C299.456,275.088,276.152,296,248,296z"/>
	<rect x="64" y="200" style="fill:#0077ff;" width="80" height="16"/>
	<rect x="64" y="232" style="fill:#0077ff;" width="80" height="16"/>
	<rect x="352" y="240" style="fill:#0077ff;" width="80" height="16"/>
	<rect x="416" y="272" style="fill:#0077ff;" width="16" height="16"/>
	<rect x="352" y="272" style="fill:#0077ff;" width="48" height="16"/>
	<path style="fill:#002855;" d="M456,120H296v-13.808c9.928-11.28,16-26.024,16-42.192c0-35.288-28.712-64-64-64s-64,28.712-64,64
		c0,16.168,6.072,30.912,16,42.192V120H40c-22.056,0-40,17.944-40,40v248c0,22.056,17.944,40,40,40h96v32h-32v16h288v-16h-32v-32h96
		c22.056,0,40-17.944,40-40V160C496,137.944,478.056,120,456,120z M216,119.344c9.424,5.472,20.336,8.656,32,8.656
		s22.576-3.184,32-8.656V136h-64V119.344z M248,16c26.472,0,48,21.528,48,48s-21.528,48-48,48s-48-21.528-48-48S221.528,16,248,16z
		 M40,136h160v16h96v-16h160c13.232,0,24,10.768,24,24v224H360v-16c0-30.872-25.128-56-56-56h-56h-56c-30.872,0-56,25.128-56,56v16
		H16V160C16,146.768,26.768,136,40,136z M304,352v32H192v-32h-16v32h-24v-16c0-22.056,17.944-40,40-40h112c22.056,0,40,17.944,40,40
		v16h-24v-32H304z M344,480H152v-32h192V480z M456,432H40c-13.232,0-24-10.768-24-24v-8h120h224h120v8
		C480,421.232,469.232,432,456,432z"/>
</g>
<g>
</g>
<g>
</g>
<g>
</g>
<g>
</g>
<g>
</g>
<g>
</g>
<g>
</g>
<g>
</g>
<g>
</g>
<g>
</g>
<g>
</g>
<g>
</g>
<g>
</g>
<g>
</g>
<g>
</g>
</svg>
