<?xml version="1.0" encoding="utf-8"?>
<!-- Generator: Adobe Illustrator 23.0.1, SVG Export Plug-In . SVG Version: 6.00 Build 0)  -->
<svg version="1.1" xmlns="http://www.w3.org/2000/svg" xmlns:xlink="http://www.w3.org/1999/xlink" x="0px" y="0px"
	 viewBox="0 0 120 120" style="enable-background:new 0 0 120 120;" xml:space="preserve">
<style type="text/css">
	.st0{fill:#E5E2C6;}
	.st1{fill:#191918;stroke:#000000;stroke-width:0.5;stroke-miterlimit:10;}
	.st2{font-family:'MyriadPro-Regular';}
	.st3{font-size:12px;}
	.st4{fill:#AABECE;}
	.st5{fill:#5A6470;}
	.st6{fill:#FFFFFF;}
	.st7{fill:#E9686A;}
</style>
<g id="Layer_2">
	<rect class="st0" width="120" height="120"/>
</g>
<g id="Layer_1">
	<g>
		<g id="Guides_For_Artboard_20_">
		</g>
		<g id="Artwork_19_">
		</g>
	</g>
	<text transform="matrix(1 0 0 1 33.0347 100.7227)" class="st1 st2 st3">QA FACETS</text>
	<g>
		<path class="st4" d="M25.9,30.6h69c1.4,0,2.6,1.1,2.6,2.6v48.6c0,1.4-1.1,2.6-2.6,2.6h-69c-1.4,0-2.6-1.1-2.6-2.6V33.2
			C23.3,31.8,24.5,30.6,25.9,30.6z"/>
		<path class="st5" d="M43.8,18.4l5.1,2v10.2l-5.1-2V18.4z"/>
		<path class="st5" d="M71.9,18.4l5.1,2v10.2l-5.1-2V18.4z"/>
		<path class="st4" d="M43.8,15.3H77c1.4,0,2.6,1.1,2.6,2.6c0,1.4-1.1,2.6-2.6,2.6H43.8c-1.4,0-2.6-1.1-2.6-2.6
			C41.2,16.4,42.4,15.3,43.8,15.3z"/>
		<path class="st5" d="M28.4,33.7h63.9v5.1H28.4V33.7z"/>
		<path class="st5" d="M87.3,46.5c-1.3,0.1-2.4-0.8-2.5-2.1c0-0.1,0-0.3,0-0.4l1-5.1h3l1,5.1c0.1,1.3-0.8,2.4-2.1,2.5
			C87.5,46.5,87.4,46.5,87.3,46.5z"/>
		<path class="st6" d="M77,62.6c0,9.2-7.4,16.6-16.6,16.6s-16.6-7.4-16.6-16.6S51.2,46,60.4,46S77,53.4,77,62.6z"/>
		<path class="st7" d="M70.6,60H63v-7.7h-5.1V60h-7.7v5.1h7.7v7.7H63v-7.7h7.7V60z"/>
		<g>
			<path class="st5" d="M91.1,78.5h-7.7v-2.6h7.7V60.6h2.6v15.3C93.6,77.3,92.5,78.5,91.1,78.5z"/>
			<path class="st5" d="M78.3,75.9h2.6v2.6h-2.6V75.9z"/>
		</g>
	</g>
</g>
</svg>
