<svg xmlns="http://www.w3.org/2000/svg" viewBox="0 0 62.13 57.16"><defs><style>.cls-1{fill:#334142;}.cls-2{fill:#24befe;}</style></defs><title>Asset 2</title><g id="Layer_2" data-name="Layer 2"><g id="_26" data-name="26"><path class="cls-1" d="M13.48,26.77h0l3.92-14.53h3.44l6.79,25.33,2.48-9.46,1.72-1.34h6.49l3.92-14.53h3.44l3.92,14.53H60.89a27.09,27.09,0,0,0,1.24-7.94C62.13,8.41,54.1,0,44.25,0A17.88,17.88,0,0,0,31.06,6,17.64,17.64,0,0,0,18,0C8.12,0,0,8.41,0,18.83a27.06,27.06,0,0,0,1.34,7.94Z"/><path class="cls-2" d="M48.17,30.4H59.45C51.9,46.65,31.06,57.16,31.06,57.16S10.32,46.65,2.77,30.4h12l1.72-1.34,2.58-9.46L25.9,44.93h3.44L33.26,30.4h6.41l1.72-1.34,2.48-9.46,2.58,9.46Z"/></g></g></svg>