<svg xmlns="http://www.w3.org/2000/svg" viewBox="0 0 139.74 85.88"><defs><style>.cls-1{fill:#f48911;}.cls-2{fill:#f6d207;}.cls-3{fill:#38e2fe;}.cls-4{fill:#516867;}.cls-5{fill:#003b5a;}</style></defs><title>Asset 1</title><g id="Layer_2" data-name="Layer 2"><g id="OBJECTS"><polygon class="cls-1" points="122.86 30.91 108.08 43.35 108.08 85.88 127.32 85.88 127.32 30.91 122.86 30.91"/><path class="cls-2" d="M81.31,49.06,79,46.86v39H98.26V51.25A14.73,14.73,0,0,1,81.31,49.06Z"/><polygon class="cls-3" points="67.77 45.25 48.55 59.51 48.55 85.88 67.77 85.88 67.77 45.25"/><polygon class="cls-4" points="37.03 68.04 17.8 82.3 17.8 85.88 37.03 85.88 37.03 68.04"/><path class="cls-5" d="M135.82,34.82a3.92,3.92,0,0,1-3.93-3.91v-17L100.54,40.34a14.7,14.7,0,0,1-19.23-.65l-3.75-3.62a7.62,7.62,0,0,0-9.24-.6l-62.05,46a4,4,0,0,1-5.5-.8,3.9,3.9,0,0,1,.81-5.47l62.05-46A15.38,15.38,0,0,1,83,30.46l3.75,3.62a6.73,6.73,0,0,0,8.69.3l30.84-26L111.13,9a3.9,3.9,0,1,1-.33-7.8l29-1.22V30.91A3.92,3.92,0,0,1,135.82,34.82Z"/></g></g></svg>