<?xml version="1.0" standalone="no"?>
<!DOCTYPE svg PUBLIC "-//W3C//DTD SVG 20010904//EN"
 "http://www.w3.org/TR/2001/REC-SVG-20010904/DTD/svg10.dtd">
<svg version="1.0" xmlns="http://www.w3.org/2000/svg"
 width="200.000000pt" height="200.000000pt" viewBox="0 0 200.000000 200.000000"
 preserveAspectRatio="xMidYMid meet">
<metadata>
Created by potrace 1.11, written by Peter Selinger 2001-2013
</metadata>
<g transform="translate(0.000000,200.000000) scale(0.100000,-0.100000)"
fill="#000000" stroke="none">
<path d="M752 1568 c-40 -9 -82 -23 -94 -30 -13 -7 -26 -11 -30 -10 -13 3
-136 -124 -143 -149 -4 -13 -14 -32 -23 -41 -8 -10 -12 -18 -8 -18 4 0 2 -8
-3 -18 -9 -18 -24 -98 -24 -132 -1 -51 17 -121 47 -193 20 -46 36 -85 36 -88
0 -3 -11 -19 -25 -35 -37 -44 -43 -111 -16 -179 47 -115 82 -150 159 -160 58
-8 145 47 157 98 16 69 11 94 -42 203 -28 59 -79 93 -140 97 -30 2 -40 8 -53
32 -8 17 -19 33 -25 37 -5 4 -6 8 -1 8 5 0 3 7 -4 15 -7 8 -9 15 -4 15 5 0 4
4 -2 8 -30 19 -40 226 -12 243 7 4 9 11 6 15 -9 8 30 85 51 101 9 7 12 13 7
13 -25 1 98 88 133 95 12 2 25 6 29 9 57 35 287 22 402 -22 8 -3 17 -6 20 -7
15 -4 76 -40 90 -54 46 -43 107 -177 115 -248 4 -40 34 -106 76 -165 11 -14
19 -31 19 -37 0 -5 6 -14 14 -18 8 -4 15 -10 15 -13 0 -3 4 -18 10 -33 16 -40
15 -40 -31 -62 -47 -23 -46 -20 -52 -160 -6 -140 -10 -151 -54 -158 -20 -3
-48 -9 -62 -12 -14 -4 -31 -7 -37 -7 -7 -1 -13 -5 -13 -10 0 -4 -5 -8 -10 -8
-16 0 -60 -47 -52 -55 4 -4 7 -12 7 -17 0 -21 22 -18 46 5 22 22 50 34 104 44
59 11 96 26 104 42 10 17 22 122 26 216 4 75 4 75 26 75 11 0 33 14 48 31 29
31 29 31 13 72 -9 23 -23 47 -32 54 -8 7 -12 13 -8 13 4 0 -16 37 -44 83 -29
46 -52 94 -52 110 0 15 -3 27 -7 27 -4 0 -6 8 -5 17 3 19 -27 104 -49 137 -8
12 -12 26 -8 29 3 4 1 7 -5 7 -6 0 -13 8 -17 19 -11 37 -116 122 -155 126 -3
0 -9 3 -15 7 -11 7 -92 30 -115 33 -8 1 -35 6 -60 10 -76 14 -154 12 -228 -7z
m-99 -713 c9 -4 17 -12 17 -17 0 -10 -40 -47 -51 -48 -9 0 -38 67 -32 74 7 6
37 2 66 -9z m-95 -60 l10 -35 -38 0 c-42 0 -46 12 -21 59 15 28 36 17 49 -24z
m160 -11 c-4 -3 2 -24 13 -47 32 -72 18 -138 -34 -166 -65 -35 -127 -10 -162
65 -35 74 -35 75 30 74 16 0 81 33 107 55 16 14 34 25 40 25 6 0 9 -3 6 -6z"/>
<path d="M847 1405 c-3 -17 1 -29 12 -35 21 -11 41 1 45 26 6 39 -49 48 -57 9z"/>
<path d="M670 1391 c0 -24 4 -28 26 -28 21 0 25 4 22 25 -2 17 -10 26 -25 28
-19 3 -23 -1 -23 -25z"/>
<path d="M669 1282 c-1 -9 -2 -52 -3 -94 l-1 -78 98 0 98 0 -3 93 -3 92 -92 2
c-82 2 -93 1 -94 -15z"/>
<path d="M917 1280 c-2 -8 -3 -31 -3 -50 l1 -35 50 0 50 0 3 48 c2 26 -1 47
-5 48 -55 7 -92 3 -96 -11z"/>
<path d="M558 1223 c-8 -30 2 -43 31 -43 24 0 28 4 26 28 -1 21 -6 28 -27 30
-18 2 -27 -2 -30 -15z"/>
<path d="M900 1102 c0 -23 4 -29 18 -27 9 2 23 4 30 4 8 1 12 10 10 24 -2 16
-11 23 -30 25 -25 3 -28 0 -28 -26z"/>
<path d="M779 988 c-6 -63 -5 -80 5 -86 13 -8 96 -10 97 -2 8 54 4 90 -10 94
-39 9 -91 6 -92 -6z"/>
</g>
</svg>
